<?xml version="1.0" encoding="UTF-8"?>
<!DOCTYPE svg
PUBLIC "-//W3C//DTD SVG 1.1//EN"
       "http://www.w3.org/Graphics/SVG/1.1/DTD/svg11.dtd">
<svg viewBox="555 65 1049 555" width="494px" height="490px" xmlns="http://www.w3.org/2000/svg" version="1.1">
   <line x1="570" y1="390" x2="560" y2="390" style="stroke:#333;stroke-width:1;"/>
   <line x1="560" y1="110" x2="570" y2="110" style="stroke:#333;stroke-width:1;"/>
   <line x1="560" y1="390" x2="560" y2="110" style="stroke:#333;stroke-width:1;"/>
   <line x1="562.5" y1="390" x2="566.03553390593" y2="393.53553390593" style="stroke:#333;stroke-width:2;"/>
   <line x1="562.5" y1="390" x2="566.03553390593" y2="386.46446609407" style="stroke:#333;stroke-width:2;"/>
   <line x1="565" y1="110" x2="561.46446609407" y2="113.53553390593" style="stroke:#333;stroke-width:2;"/>
   <line x1="565" y1="110" x2="561.46446609407" y2="106.46446609407" style="stroke:#333;stroke-width:2;"/>
   <line x1="920" y1="350" x2="910" y2="350" style="stroke:#bbb;stroke-width:1;"/>
   <line x1="658" y1="110" x2="648" y2="110" style="stroke:#bbb;stroke-width:1;"/>
   <line x1="910" y1="350" x2="658" y2="110" style="stroke:#bbb;stroke-width:1;"/>
   <line x1="912.5" y1="350" x2="916.03553390593" y2="353.53553390593" style="stroke:#bbb;stroke-width:2;"/>
   <line x1="912.5" y1="350" x2="916.03553390593" y2="346.46446609407" style="stroke:#bbb;stroke-width:2;"/>
   <line x1="653" y1="110" x2="656.53553390593" y2="113.53553390593" style="stroke:#bbb;stroke-width:2;"/>
   <line x1="653" y1="110" x2="656.53553390593" y2="106.46446609407" style="stroke:#bbb;stroke-width:2;"/>
   <line x1="920" y1="370" x2="910" y2="370" style="stroke:#b0b;stroke-width:1;"/>
   <line x1="661" y1="370" x2="651" y2="370" style="stroke:#b0b;stroke-width:1;"/>
   <line x1="910" y1="370" x2="661" y2="370" style="stroke:#b0b;stroke-width:1;"/>
   <line x1="912.5" y1="370" x2="916.03553390593" y2="373.53553390593" style="stroke:#b0b;stroke-width:2;"/>
   <line x1="912.5" y1="370" x2="916.03553390593" y2="366.46446609407" style="stroke:#b0b;stroke-width:2;"/>
   <line x1="656" y1="370" x2="659.53553390593" y2="373.53553390593" style="stroke:#b0b;stroke-width:2;"/>
   <line x1="656" y1="370" x2="659.53553390593" y2="366.46446609407" style="stroke:#b0b;stroke-width:2;"/>
   <line x1="920" y1="110" x2="910" y2="110" style="stroke:#bbb;stroke-width:1;"/>
   <line x1="658" y1="110" x2="648" y2="110" style="stroke:#bbb;stroke-width:1;"/>
   <line x1="910" y1="110" x2="658" y2="110" style="stroke:#bbb;stroke-width:1;"/>
   <line x1="912.5" y1="110" x2="916.03553390593" y2="113.53553390593" style="stroke:#bbb;stroke-width:2;"/>
   <line x1="912.5" y1="110" x2="916.03553390593" y2="106.46446609407" style="stroke:#bbb;stroke-width:2;"/>
   <line x1="653" y1="110" x2="656.53553390593" y2="113.53553390593" style="stroke:#bbb;stroke-width:2;"/>
   <line x1="653" y1="110" x2="656.53553390593" y2="106.46446609407" style="stroke:#bbb;stroke-width:2;"/>
   <rect width="81" height="20" x="570" y="340" style="fill:#007;stroke:black;"/>
   <text width="81" height="20" x="575" y="354" style="fill:#fff;" font-family="Arial" font-size="16px"> animals</text>
   <rect width="81" height="20" x="570" y="360" style="fill:#aea;stroke:black;"/>
   <text width="81" height="20" x="575" y="374" style="fill:black;" font-family="Arial" font-size="16px">animal_id</text>
   <rect width="81" height="20" x="570" y="380" style="fill:none;stroke:black;"/>
   <text width="81" height="20" x="575" y="394" style="fill:black;" font-family="Arial" font-size="16px">owner_id</text>
   <rect width="81" height="20" x="570" y="400" style="fill:none;stroke:black;"/>
   <text width="81" height="20" x="575" y="414" style="fill:black;" font-family="Arial" font-size="16px">species</text>
   <rect width="81" height="20" x="570" y="420" style="fill:none;stroke:black;"/>
   <text width="81" height="20" x="575" y="434" style="fill:black;" font-family="Arial" font-size="16px">age</text>
   <rect width="81" height="20" x="570" y="440" style="fill:none;stroke:black;"/>
   <text width="81" height="20" x="575" y="454" style="fill:black;" font-family="Arial" font-size="16px">name</text>
   <rect width="81" height="20" x="570" y="460" style="fill:none;stroke:black;"/>
   <text width="81" height="20" x="575" y="474" style="fill:black;" font-family="Arial" font-size="16px">breed</text>
   <rect width="81" height="20" x="570" y="480" style="fill:none;stroke:black;"/>
   <text width="81" height="20" x="575" y="494" style="fill:black;" font-family="Arial" font-size="16px">weight</text>
   <rect width="81" height="20" x="570" y="500" style="fill:none;stroke:black;"/>
   <text width="81" height="20" x="575" y="514" style="fill:black;" font-family="Arial" font-size="16px">registered</text>
   <rect width="81" height="20" x="570" y="520" style="fill:none;stroke:black;"/>
   <text width="81" height="20" x="575" y="534" style="fill:black;" font-family="Arial" font-size="16px">gender</text>
   <rect width="75" height="20" x="920" y="300" style="fill:#007;stroke:black;"/>
   <text width="75" height="20" x="925" y="314" style="fill:#fff;" font-family="Arial" font-size="16px"> posts</text>
   <rect width="75" height="20" x="920" y="320" style="fill:#aea;stroke:black;"/>
   <text width="75" height="20" x="925" y="334" style="fill:black;" font-family="Arial" font-size="16px">post_id</text>
   <rect width="75" height="20" x="920" y="340" style="fill:none;stroke:black;"/>
   <text width="75" height="20" x="925" y="354" style="fill:black;" font-family="Arial" font-size="16px">owner_id</text>
   <rect width="75" height="20" x="920" y="360" style="fill:none;stroke:black;"/>
   <text width="75" height="20" x="925" y="374" style="fill:black;" font-family="Arial" font-size="16px">animal_id</text>
   <rect width="75" height="20" x="920" y="380" style="fill:none;stroke:black;"/>
   <text width="75" height="20" x="925" y="394" style="fill:black;" font-family="Arial" font-size="16px">body</text>
   <rect width="78" height="20" x="570" y="80" style="fill:#007;stroke:black;"/>
   <text width="78" height="20" x="575" y="94" style="fill:#fff;" font-family="Arial" font-size="16px"> users</text>
   <rect width="78" height="20" x="570" y="100" style="fill:#aea;stroke:black;"/>
   <text width="78" height="20" x="575" y="114" style="fill:black;" font-family="Arial" font-size="16px">user_id</text>
   <rect width="78" height="20" x="570" y="120" style="fill:none;stroke:black;"/>
   <text width="78" height="20" x="575" y="134" style="fill:black;" font-family="Arial" font-size="16px">email</text>
   <rect width="78" height="20" x="570" y="140" style="fill:none;stroke:black;"/>
   <text width="78" height="20" x="575" y="154" style="fill:black;" font-family="Arial" font-size="16px">password</text>
   <rect width="114" height="20" x="920" y="80" style="fill:#007;stroke:black;"/>
   <text width="114" height="20" x="925" y="94" style="fill:#fff;" font-family="Arial" font-size="16px"> user_info</text>
   <rect width="114" height="20" x="920" y="100" style="fill:none;stroke:black;"/>
   <text width="114" height="20" x="925" y="114" style="fill:black;" font-family="Arial" font-size="16px">user_id</text>
   <rect width="114" height="20" x="920" y="120" style="fill:none;stroke:black;"/>
   <text width="114" height="20" x="925" y="134" style="fill:black;" font-family="Arial" font-size="16px">full_name</text>
   <rect width="114" height="20" x="920" y="140" style="fill:none;stroke:black;"/>
   <text width="114" height="20" x="925" y="154" style="fill:black;" font-family="Arial" font-size="16px">country</text>
   <rect width="114" height="20" x="920" y="160" style="fill:none;stroke:black;"/>
   <text width="114" height="20" x="925" y="174" style="fill:black;" font-family="Arial" font-size="16px">state</text>
   <rect width="114" height="20" x="920" y="180" style="fill:none;stroke:black;"/>
   <text width="114" height="20" x="925" y="194" style="fill:black;" font-family="Arial" font-size="16px">city</text>
   <rect width="114" height="20" x="920" y="200" style="fill:none;stroke:black;"/>
   <text width="114" height="20" x="925" y="214" style="fill:black;" font-family="Arial" font-size="16px">postcode</text>
   <rect width="114" height="20" x="920" y="220" style="fill:none;stroke:black;"/>
   <text width="114" height="20" x="925" y="234" style="fill:black;" font-family="Arial" font-size="16px">phone_number</text>
</svg>
